<svg width="8" height="8" viewBox="0 0 8 8" fill="none" xmlns="http://www.w3.org/2000/svg">
<path fill-rule="evenodd" clip-rule="evenodd" d="M7.31493 2.54763C7.58419 2.27419 7.5808 1.83424 7.30736 1.56498C7.03392 1.29572 6.59397 1.29911 6.32471 1.57255L3.21769 4.72782L1.67753 3.14309C1.41007 2.86788 0.970154 2.86161 0.694953 3.12907C0.419751 3.39653 0.413476 3.83644 0.680935 4.11164L2.82257 6.31527C3.03579 6.53466 3.38772 6.53581 3.60238 6.31782L7.31493 2.54763ZM6.76958 1.54951C6.6542 1.5608 6.54197 1.61106 6.45427 1.70012L3.21781 4.98683L3.21861 4.98765L6.45604 1.69995C6.54329 1.61134 6.65482 1.56114 6.76958 1.54951ZM1.12876 3.1168C1.01715 3.12776 0.908345 3.17522 0.821671 3.25945C0.618479 3.45693 0.613846 3.78173 0.811321 3.98492L2.95295 6.18855C3.03369 6.27162 3.14426 6.30776 3.25095 6.29685C3.14481 6.30718 3.03502 6.27098 2.95473 6.18837L0.813096 3.98475C0.615621 3.78156 0.620255 3.45675 0.823446 3.25928C0.909661 3.17549 1.01777 3.12808 1.12876 3.1168Z" fill="white"/>
</svg>
