<svg width="500" height="356" viewBox="0 0 500 356" fill="none" xmlns="http://www.w3.org/2000/svg">
<path d="M0 0H500V356H0V0Z" fill="#EEEFF3"/>
<path d="M179 33.5484C179 31.5887 180.587 30 182.544 30H318.027C319.984 30 321.57 31.5887 321.57 33.5484V59.4516C321.57 61.4113 319.984 63 318.027 63H182.544C180.587 63 179 61.4113 179 59.4516V33.5484Z" fill="#CCCFD8"/>
<path d="M262.627 50.9094V42.7969H268.115V44.211H264.349V46.1441H267.833V47.5582H264.349V49.4952H268.131V50.9094H262.627Z" fill="white"/>
<path d="M259.507 45.4188C259.451 45.226 259.373 45.0556 259.272 44.9078C259.172 44.7572 259.048 44.6305 258.902 44.5275C258.759 44.4219 258.595 44.3413 258.409 44.2859C258.226 44.2304 258.023 44.2027 257.801 44.2027C257.385 44.2027 257.019 44.3057 256.703 44.5116C256.39 44.7176 256.146 45.0174 255.971 45.4108C255.796 45.8017 255.709 46.2797 255.709 46.8448C255.709 47.4099 255.795 47.8905 255.967 48.2866C256.14 48.6828 256.384 48.9851 256.699 49.1938C257.015 49.3997 257.387 49.5027 257.817 49.5027C258.206 49.5027 258.539 49.4341 258.815 49.2967C259.093 49.1568 259.305 48.96 259.451 48.7065C259.6 48.453 259.674 48.1533 259.674 47.8073L260.024 47.8588H257.924V46.5675H261.332V47.5895C261.332 48.3025 261.181 48.9152 260.879 49.4275C260.577 49.9371 260.161 50.3306 259.63 50.6079C259.1 50.8825 258.493 51.0199 257.809 51.0199C257.045 51.0199 256.374 50.8522 255.796 50.5168C255.218 50.1788 254.768 49.6995 254.444 49.0789C254.123 48.4557 253.963 47.7162 253.963 46.8606C253.963 46.2031 254.058 45.6168 254.249 45.1019C254.443 44.5843 254.713 44.1459 255.061 43.7868C255.408 43.4276 255.812 43.1543 256.274 42.9668C256.735 42.7793 257.235 42.6855 257.773 42.6855C258.234 42.6855 258.664 42.7529 259.062 42.8876C259.459 43.0196 259.812 43.2071 260.119 43.4501C260.43 43.693 260.683 43.9822 260.879 44.3176C261.075 44.6503 261.201 45.0174 261.257 45.4188H259.507Z" fill="white"/>
<path d="M247.515 50.9094H245.67L248.482 42.7969H250.701L253.509 50.9094H251.663L249.623 44.6507H249.56L247.515 50.9094ZM247.4 47.7206H251.759V49.0595H247.4V47.7206Z" fill="white"/>
<path d="M239.316 44.211V42.7969H246.006V44.211H243.512V50.9094H241.81V44.211H239.316Z" fill="white"/>
<path d="M236.705 45.1296C236.674 44.8101 236.537 44.5618 236.296 44.3849C236.055 44.208 235.727 44.1195 235.313 44.1195C235.032 44.1195 234.795 44.1591 234.602 44.2383C234.408 44.3149 234.26 44.4219 234.156 44.5592C234.055 44.6965 234.005 44.8523 234.005 45.0266C234 45.1718 234.03 45.2986 234.096 45.4069C234.165 45.5151 234.26 45.6089 234.379 45.6881C234.498 45.7647 234.636 45.832 234.792 45.8901C234.949 45.9456 235.116 45.9931 235.294 46.0327L236.025 46.207C236.381 46.2863 236.707 46.3919 237.004 46.5239C237.301 46.656 237.558 46.8184 237.775 47.0111C237.993 47.2039 238.161 47.431 238.28 47.6925C238.402 47.9539 238.465 48.2536 238.467 48.5917C238.465 49.0881 238.337 49.5186 238.085 49.883C237.836 50.2448 237.476 50.526 237.004 50.7267C236.534 50.9248 235.968 51.0238 235.306 51.0238C234.648 51.0238 234.075 50.9235 233.587 50.7228C233.102 50.5221 232.723 50.225 232.45 49.8315C232.18 49.4354 232.038 48.9455 232.024 48.3619H233.691C233.709 48.6339 233.788 48.861 233.925 49.0432C234.066 49.2228 234.253 49.3588 234.486 49.4512C234.722 49.541 234.989 49.5859 235.286 49.5859C235.577 49.5859 235.83 49.5437 236.045 49.4592C236.263 49.3746 236.431 49.2571 236.55 49.1066C236.67 48.9561 236.729 48.7831 236.729 48.5877C236.729 48.4055 236.675 48.2523 236.566 48.1282C236.46 48.0041 236.304 47.8985 236.097 47.8113C235.893 47.7242 235.642 47.6449 235.345 47.5736L234.458 47.3518C233.772 47.1854 233.229 46.9253 232.832 46.5715C232.434 46.2176 232.237 45.7409 232.239 45.1415C232.237 44.6503 232.368 44.2212 232.633 43.8541C232.901 43.487 233.268 43.2005 233.735 42.9945C234.201 42.7885 234.731 42.6855 235.325 42.6855C235.93 42.6855 236.458 42.7885 236.908 42.9945C237.362 43.2005 237.714 43.487 237.966 43.8541C238.218 44.2212 238.348 44.6463 238.356 45.1296H236.705Z" fill="white"/>
<path d="M249.886 195.34V189.73H253.615V190.708H251.077V192.045H253.367V193.023H251.077V195.34H249.886Z" fill="#555555"/>
<path d="M248.514 189.73V195.34H247.323V190.856H247.29L246 191.662V190.61L247.394 189.73H248.514Z" fill="#555555"/>
<path d="M250.966 327.537V321.928H254.695V322.906H252.157V324.242H254.447V325.22H252.157V327.537H250.966Z" fill="#555555"/>
<path d="M246.055 327.536V326.681L248.06 324.833C248.23 324.668 248.373 324.52 248.489 324.389C248.606 324.257 248.695 324.129 248.756 324.003C248.816 323.875 248.846 323.737 248.846 323.589C248.846 323.425 248.809 323.283 248.734 323.164C248.658 323.044 248.556 322.952 248.426 322.888C248.295 322.822 248.148 322.789 247.983 322.789C247.81 322.789 247.66 322.824 247.532 322.893C247.403 322.963 247.304 323.062 247.235 323.192C247.165 323.321 247.13 323.476 247.13 323.655H246C246 323.288 246.083 322.969 246.25 322.699C246.417 322.428 246.651 322.219 246.952 322.071C247.252 321.924 247.599 321.85 247.991 321.85C248.394 321.85 248.746 321.921 249.044 322.063C249.345 322.204 249.579 322.399 249.746 322.649C249.912 322.9 249.996 323.186 249.996 323.51C249.996 323.721 249.954 323.93 249.869 324.137C249.787 324.343 249.639 324.572 249.427 324.824C249.214 325.074 248.914 325.375 248.527 325.725L247.705 326.528V326.566H250.07V327.536H246.055Z" fill="#555555"/>
<path d="M124.498 75L146.586 121.298H102.409L124.498 75Z" fill="white"/>
<path d="M375.502 75L397.591 121.298H353.414L375.502 75Z" fill="white"/>
<path d="M124.498 75C223.333 84.881 278.265 84.599 375.502 75V121.298H124.498V75Z" fill="white"/>
<path d="M102 121H398V184H102V121Z" fill="white"/>
<path d="M165.19 88H166.125V94H165.19V88ZM165.888 90.3002H167.024V91.0065H165.888V90.3002ZM163.496 88.622H164.409C164.409 89.2225 164.317 89.7905 164.131 90.3261C163.949 90.8618 163.647 91.3542 163.224 91.8035C162.806 92.2484 162.239 92.6371 161.523 92.9698L161 92.3153C161.567 92.0432 162.034 91.7365 162.401 91.3952C162.773 91.054 163.048 90.6674 163.224 90.2354C163.405 89.7991 163.496 89.3132 163.496 88.7775V88.622ZM161.356 88.622H163.977V89.3153H161.356V88.622Z" fill="#111111"/>
<path d="M252.379 90.2743H253.37V90.987H252.379V90.2743ZM251.771 88H252.586V94H251.771V88ZM248.35 88.5767H249.152V92.3089H248.35V88.5767ZM248.35 91.8229H248.83C249.231 91.8229 249.648 91.8056 250.082 91.7711C250.515 91.7365 250.959 91.6717 251.413 91.5767L251.498 92.2765C251.028 92.3801 250.57 92.4514 250.124 92.4903C249.679 92.5248 249.247 92.5421 248.83 92.5421H248.35V91.8229Z" fill="#111111"/>
<path d="M337.737 88H338.553V94H337.737V88ZM338.377 90.2153H339.37V90.9257H338.377V90.2153ZM334.35 91.8558H334.825C335.146 91.8558 335.446 91.8515 335.726 91.8428C336.007 91.8299 336.279 91.8105 336.543 91.7847C336.807 91.7546 337.077 91.7137 337.353 91.662L337.432 92.3724C337.148 92.4241 336.868 92.465 336.592 92.4952C336.319 92.5253 336.039 92.5447 335.751 92.5533C335.462 92.5619 335.154 92.5662 334.825 92.5662H334.35V91.8558ZM334.35 88.5554H336.981V89.2465H335.16V92.1916H334.35V88.5554Z" fill="#111111"/>
<path d="M102 206H397.181V303.499C283.861 321.591 219.294 321.409 102 303.499V206Z" fill="white"/>
<path d="M164.716 212H165.689V218H164.716V212ZM165.47 214.267H166.663V214.971H165.47V214.267ZM160.653 215.907H161.217C161.602 215.907 161.964 215.903 162.3 215.895C162.637 215.886 162.964 215.869 163.281 215.843C163.603 215.813 163.93 215.774 164.262 215.727L164.35 216.418C164.008 216.469 163.671 216.51 163.34 216.54C163.013 216.566 162.676 216.586 162.33 216.598C161.983 216.611 161.612 216.618 161.217 216.618H160.653V215.907ZM160.639 212.51H163.757V214.829H161.612V216.179H160.653V214.151H162.791V213.201H160.639V212.51Z" fill="#111111"/>
<path d="M248 212.557H251.211V216.536H248V212.557ZM250.262 213.238H248.95V215.862H250.262V213.238ZM252.081 212H253.053V218H252.081V212ZM252.842 214.261H254.024V214.968H252.842V214.261Z" fill="#111111"/>
<path d="M339.081 212H340.053V218H339.081V212ZM339.842 214.229H341.024V214.942H339.842V214.229ZM335 212.467H335.957V213.931H337.305V212.467H338.262V216.607H335V212.467ZM335.957 214.598V215.92H337.305V214.598H335.957Z" fill="#111111"/>
</svg>
