<svg width="256" height="256" viewBox="0 0 256 256" fill="none" xmlns="http://www.w3.org/2000/svg">
  <rect width="256" height="256" rx="64" fill="#DC2626"/>
  <path d="M68 90C87.8823 90 103 105.118 103 125C103 144.882 87.8823 160 68 160C48.1177 160 33 144.882 33 125C33 105.118 48.1177 90 68 90ZM68 107C57.5066 107 50 114.507 50 125C50 135.493 57.5066 143 68 143C78.4934 143 86 135.493 86 125C86 114.507 78.4934 107 68 107Z" fill="white"/>
  <path d="M108 90H122L149 131V90H165V166H151L124 125V166H108V90Z" fill="white"/>
  <path d="M176 90H221V107H193V119H216V135H193V149H221V166H176V90Z" fill="white"/>
</svg>
